# xmcd CD database file
#
# Track frame offsets:
#	150
#	15061
#	30317
#	47140
#	64556
#	80196
#	96949
#	112055
#	127393
#	140646
#
# Disc length: 2014 seconds
#
# Revision: 0
# Processed by: cddbd v1.4PL0 Copyright (c) Steve Scherf et al.
# Submitted via: CDex 1.40Beta8
#
DISCID=8707dc0a
DTITLE=Nicolette Larson - In The Nick Of Time
DYEAR=1979
DGENRE=Country
TTITLE0=Dancin' Jones
TTITLE1=Just In The Nick Of Time
TTITLE2=Let Me Go Love
TTITLE3=Rio De Janeiro Blue
TTITLE4=Breaking Too Many Hearts
TTITLE5=Back In My Arms
TTITLE6=Fallen
TTITLE7=Daddy
TTITLE8=Isn't It Always Love
TTITLE9=Trouble
EXTD=YEAR: 1979 ID3G: 2
EXTT0=
EXTT1=
EXTT2=
EXTT3=
EXTT4=
EXTT5=
EXTT6=
EXTT7=
EXTT8=
EXTT9=
PLAYORDER=
